<svg xmlns="http://www.w3.org/2000/svg" version="1.1" xmlns:xlink="http://www.w3.org/1999/xlink" xmlns:svgjs="http://svgjs.dev/svgjs" width="1000" height="1000" viewBox="0 0 1000 1000"><g transform="matrix(1,0,0,1,-0.14221556886212738,-0.14221556886229791)"><svg viewBox="0 0 334 334" data-background-color="#cf5260" preserveAspectRatio="xMidYMid meet" height="1000" width="1000" xmlns="http://www.w3.org/2000/svg" xmlns:xlink="http://www.w3.org/1999/xlink"><g id="tight-bounds" transform="matrix(1,0,0,1,0.04749999999998522,0.04750000000001364)"><svg viewBox="0 0 333.90454557049503 333.90454557049503" height="333.90454557049503" width="333.90454557049503"><g><svg></svg></g><g><svg viewBox="0 0 333.90454557049503 333.90454557049503" height="333.90454557049503" width="333.90454557049503"><g><path d="M0 166.952c0-92.205 74.747-166.952 166.952-166.952 92.205 0 166.952 74.747 166.953 166.952 0 92.205-74.747 166.952-166.953 166.953-92.205 0-166.952-74.747-166.952-166.953zM166.952 330.82c90.502 0 163.868-73.366 163.868-163.868 0-90.502-73.366-163.868-163.868-163.868-90.502 0-163.868 73.366-163.868 163.868 0 90.502 73.366 163.868 163.868 163.868z" data-fill-palette-color="tertiary" fill="#f0f0f0" stroke="transparent"></path><ellipse rx="160.27418187383762" ry="160.27418187383762" cx="166.95227278524752" cy="166.95227278524752" fill="#f0f0f0" stroke="transparent" stroke-width="0" fill-opacity="1" data-fill-palette-color="tertiary"></ellipse></g><g transform="matrix(1,0,0,1,105.8241308231226,71.17305217166896)"><svg viewBox="0 0 122.25628392424984 191.55844122715712" height="191.55844122715712" width="122.25628392424984"><g><svg viewBox="0 0 214.22423343329288 335.6593126533313" height="191.55844122715712" width="122.25628392424984"><g transform="matrix(1,0,0,1,0,246.7946400286284)"><svg viewBox="0 0 214.22423343329288 88.86467262470293" height="88.86467262470293" width="214.22423343329288"><g><svg viewBox="0 0 214.22423343329288 88.86467262470293" height="88.86467262470293" width="214.22423343329288"><g><rect width="214.22423343329288" height="5.40412615111365" x="0" y="66.29142555694293" fill="#cf5260" opacity="1" stroke-width="0" stroke="transparent" fill-opacity="1" class="rect-o-0" data-fill-palette-color="quaternary" rx="1%" id="o-0" data-palette-color="#cf5260"></rect></g><g transform="matrix(1,0,0,1,0.532896103067884,0)"><svg viewBox="0 0 213.1584412271571 59.92530836322266" height="59.92530836322266" width="213.1584412271571"><g transform="matrix(1,0,0,1,0,0)"><svg width="213.1584412271571" viewBox="3.049999952316284 -35.9900016784668 133.91000366210938 37.650001525878906" height="59.92530836322266" data-palette-color="#cf5260"><path d="M3.05-15.77L3.05-15.77Q3.05-18.58 3.7-21.15 4.35-23.73 5.54-25.96 6.74-28.2 8.44-30.02 10.13-31.84 12.23-33.14 14.33-34.45 16.78-35.16 19.24-35.86 21.95-35.86L21.95-35.86Q24.1-35.86 25.72-35.58 27.34-35.3 28.55-34.88 29.76-34.45 30.58-33.94 31.4-33.42 31.93-32.96L31.93-32.96Q31.91-32.96 31.91-32.79L31.91-32.79Q31.91-32.42 31.97-31.45 32.03-30.47 32.12-29.27 32.2-28.08 32.26-26.84 32.32-25.61 32.32-24.71L32.32-24.71Q32.32-24.56 32.23-24.38 32.13-24.19 31.74-24.19L31.74-24.19Q31.52-24.19 31.2-24.27L31.2-24.27Q30.69-24.41 29.91-24.94 29.13-25.46 28.09-26.04 27.05-26.61 25.77-27.06 24.49-27.51 22.97-27.51L22.97-27.51Q20.97-27.51 19.34-26.67 17.7-25.83 16.55-24.33 15.41-22.83 14.77-20.76 14.14-18.7 14.14-16.28L14.14-16.28Q14.14-14.16 14.53-12.3 14.92-10.45 15.71-9.09 16.5-7.74 17.68-6.96 18.85-6.18 20.43-6.18L20.43-6.18Q21.97-6.18 23.93-6.84L23.93-6.84 24.49-10.28 19.82-10.28Q20.36-13.23 20.75-14.92 21.14-16.6 21.48-17.46 21.83-18.31 22.19-18.53 22.56-18.75 23.05-18.75L23.05-18.75 35.89-18.75Q36.45-18.75 36.71-18.68 36.96-18.6 36.96-18.16L36.96-18.16Q36.96-17.94 36.91-17.64 36.87-17.33 36.79-16.89L36.79-16.89 35.57-12.79Q35.35-12.01 35.21-11.58 35.06-11.16 34.84-10.95 34.62-10.74 34.24-10.71 33.86-10.67 33.15-10.67L33.15-10.67Q32.76-10.67 32.69-10.35 32.62-10.03 32.57-9.69L32.57-9.69Q32.42-8.62 32.28-7.56 32.13-6.49 31.99-5.58 31.86-4.66 31.71-3.97 31.57-3.27 31.42-2.95L31.42-2.95Q29.76-1.9 28.41-1.11 27.05-0.32 25.71 0.21 24.37 0.73 22.88 1 21.39 1.27 19.46 1.27L19.46 1.27Q16.02 1.27 13.01 0.02 10.01-1.22 7.8-3.48 5.59-5.74 4.32-8.86 3.05-11.99 3.05-15.77ZM60.69-20.26L60.69-20.26Q60.59-19.92 60.32-19.3 60.06-18.68 59.7-17.9 59.35-17.11 58.95-16.22 58.54-15.33 58.15-14.43L58.15-14.43Q58.01-14.09 57.88-13.93 57.76-13.77 57.49-13.7 57.22-13.62 56.75-13.61 56.27-13.6 55.42-13.57L55.42-13.57 52.02-13.5 51.34-6.03 63.86-6.03 63.86-5.08Q63.82-5.03 63.45-4.43 63.08-3.83 62.6-3 62.11-2.17 61.57-1.33 61.03-0.49 60.67 0.02L60.67 0.02Q60.42 0.46 60.1 0.72 59.79 0.98 59.41 1.1 59.03 1.22 58.58 1.25 58.13 1.27 57.59 1.27L57.59 1.27Q55.39 1.27 53.01 1.17 50.63 1.07 48.26 0.93 45.9 0.78 43.64 0.6 41.38 0.42 39.45 0.22L39.45 0.22Q39.28 0.2 39.15 0.02 39.01-0.15 39.01-0.37L39.01-0.37Q38.91-0.37 39.15-0.78 39.38-1.2 39.79-1.86 40.21-2.51 40.71-3.36 41.21-4.2 41.67-5.05L41.67-5.05 42.06-10.55Q42.16-11.94 42.22-12.62 42.28-13.31 42.28-13.35L42.28-13.35Q40.82-13.38 40.1-13.5 39.38-13.62 39.38-14.04L39.38-14.04Q39.38-14.23 39.73-14.77 40.09-15.31 40.6-16 41.11-16.7 41.68-17.46 42.26-18.21 42.7-18.85L42.7-18.85 43.31-27.15 43.23-27.15Q42.7-27.12 42.26-27.11 41.82-27.1 41.45-27.1L41.45-27.1Q40.28-27.1 39.78-27.23 39.28-27.37 39.28-27.73L39.28-27.73Q39.28-27.91 39.57-28.44 39.87-28.98 40.31-29.68 40.74-30.37 41.23-31.14 41.72-31.91 42.11-32.57L42.11-32.57 43.58-35.06 53.78-35.06 65.82-35.94Q65.84-35.94 65.95-35.93 66.06-35.91 66.18-35.85 66.31-35.79 66.42-35.64 66.53-35.5 66.53-35.23L66.53-35.23 66.16-33.96Q65.99-33.42 65.74-32.82 65.5-32.23 65.21-31.59L65.21-31.59 64.13-28.76Q63.96-28.34 63.74-28.13 63.52-27.91 62.81-27.88L62.81-27.88Q60.96-27.83 58.68-27.72 56.39-27.61 53.44-27.51L53.44-27.51Q53.34-27.17 53.34-26.97 53.34-26.76 53.29-26.17L53.29-26.17 53.17-25.05Q53.12-24.27 53.02-23.36 52.93-22.46 52.78-21.14L52.78-21.14Q54.03-21.19 55.21-21.24 56.39-21.29 57.37-21.33 58.35-21.36 59.07-21.39 59.79-21.41 60.08-21.41L60.08-21.41Q60.28-21.41 60.52-21.26 60.76-21.12 60.76-20.7L60.76-20.7Q60.76-20.51 60.69-20.26ZM91.94-33.89L99.56-35.94Q99.68-35.96 99.79-35.97 99.9-35.99 100-35.99L100-35.99Q100.43-35.99 100.7-35.71 100.97-35.42 101.07-34.72L101.07-34.72Q101.12-34.28 101.23-33.48 101.34-32.69 101.47-31.73 101.61-30.76 101.77-29.74 101.92-28.71 102.05-27.84 102.17-26.98 102.27-26.35 102.36-25.73 102.39-25.56L102.39-25.56Q102.92-21.24 103.34-18.63 103.75-16.02 103.93-14.77L103.93-14.77 105.56-1.56 105.32-0.81Q105.27-0.63 104.68-0.39 104.1-0.15 103.27 0.13 102.44 0.42 101.46 0.68 100.48 0.95 99.65 1.17 98.82 1.39 98.25 1.53 97.68 1.66 97.65 1.66L97.65 1.66Q97.07 1.66 96.72 0.81 96.38-0.05 96.16-1.37 95.94-2.69 95.81-4.25 95.67-5.81 95.5-7.25L95.5-7.25Q95.36-8.45 95.23-9.67 95.11-10.89 94.97-12.16L94.97-12.16 94.01-19.29 84.96-2.71Q84.54-2.12 84.13-1.87 83.71-1.61 83.34-1.61L83.34-1.61Q82.81-1.61 82.5-1.93 82.2-2.25 82.08-2.71L82.08-2.71Q81.61-4.25 81.28-5.31 80.95-6.37 80.67-7.25 80.39-8.13 80.15-8.96 79.9-9.79 79.6-10.88 79.29-11.96 78.91-13.44 78.54-14.92 78-17.07L78-17.07 77.24-13.55 73.73 1.37Q73.65 1.66 73.12 1.66L73.12 1.66Q72.6 1.66 71.71 1.46 70.82 1.27 69.86 0.99 68.89 0.71 67.98 0.4 67.06 0.1 66.52-0.15L66.52-0.15Q66.4-0.2 66.22-0.38 66.04-0.56 66.04-0.95L66.04-0.95Q66.04-1.05 66.11-1.37 66.18-1.68 66.29-2.11 66.4-2.54 66.54-2.98 66.67-3.42 66.79-3.76L66.79-3.76Q67.11-4.59 67.37-5.71 67.62-6.84 67.84-7.98 68.06-9.13 68.24-10.18 68.43-11.23 68.6-11.94L68.6-11.94 71.6-25.95 72.5-29.91Q72.68-30.66 72.83-31.38 72.99-32.1 73.12-32.69 73.24-33.28 73.31-33.64 73.38-34.01 73.38-34.06L73.38-34.06 79.49-35.94Q79.83-35.94 80.09-35.88 80.34-35.82 80.41-35.47L80.41-35.47 85.27-19.85 91.94-33.89ZM131.12-20.26L131.12-20.26Q131.02-19.92 130.75-19.3 130.49-18.68 130.13-17.9 129.78-17.11 129.37-16.22 128.97-15.33 128.58-14.43L128.58-14.43Q128.43-14.09 128.31-13.93 128.19-13.77 127.92-13.7 127.65-13.62 127.18-13.61 126.7-13.6 125.85-13.57L125.85-13.57 122.45-13.5 121.77-6.03 134.29-6.03 134.29-5.08Q134.25-5.03 133.88-4.43 133.51-3.83 133.02-3 132.54-2.17 132-1.33 131.46-0.49 131.1 0.02L131.1 0.02Q130.85 0.46 130.53 0.72 130.22 0.98 129.84 1.1 129.46 1.22 129.01 1.25 128.56 1.27 128.02 1.27L128.02 1.27Q125.82 1.27 123.44 1.17 121.06 1.07 118.69 0.93 116.33 0.78 114.07 0.6 111.81 0.42 109.88 0.22L109.88 0.22Q109.71 0.2 109.58 0.02 109.44-0.15 109.44-0.37L109.44-0.37Q109.34-0.37 109.58-0.78 109.81-1.2 110.22-1.86 110.64-2.51 111.14-3.36 111.64-4.2 112.1-5.05L112.1-5.05 112.49-10.55Q112.59-11.94 112.65-12.62 112.71-13.31 112.71-13.35L112.71-13.35Q111.25-13.38 110.53-13.5 109.81-13.62 109.81-14.04L109.81-14.04Q109.81-14.23 110.16-14.77 110.51-15.31 111.03-16 111.54-16.7 112.11-17.46 112.69-18.21 113.13-18.85L113.13-18.85 113.74-27.15 113.66-27.15Q113.13-27.12 112.69-27.11 112.25-27.1 111.88-27.1L111.88-27.1Q110.71-27.1 110.21-27.23 109.71-27.37 109.71-27.73L109.71-27.73Q109.71-27.91 110-28.44 110.3-28.98 110.73-29.68 111.17-30.37 111.66-31.14 112.15-31.91 112.54-32.57L112.54-32.57 114.01-35.06 124.21-35.06 136.25-35.94Q136.27-35.94 136.38-35.93 136.49-35.91 136.61-35.85 136.74-35.79 136.85-35.64 136.96-35.5 136.96-35.23L136.96-35.23 136.59-33.96Q136.42-33.42 136.17-32.82 135.93-32.23 135.64-31.59L135.64-31.59 134.56-28.76Q134.39-28.34 134.17-28.13 133.95-27.91 133.24-27.88L133.24-27.88Q131.39-27.83 129.11-27.72 126.82-27.61 123.87-27.51L123.87-27.51Q123.77-27.17 123.77-26.97 123.77-26.76 123.72-26.17L123.72-26.17 123.6-25.05Q123.55-24.27 123.45-23.36 123.36-22.46 123.21-21.14L123.21-21.14Q124.46-21.19 125.64-21.24 126.82-21.29 127.8-21.33 128.78-21.36 129.5-21.39 130.22-21.41 130.51-21.41L130.51-21.41Q130.71-21.41 130.95-21.26 131.19-21.12 131.19-20.7L131.19-20.7Q131.19-20.51 131.12-20.26Z" opacity="1" transform="matrix(1,0,0,1,0,0)" fill="#cf5260" class="undefined-text-0" data-fill-palette-color="quaternary" id="text-0"></path></svg></g></svg></g><g transform="matrix(1,0,0,1,21.848740225783587,78.06166890177684)"><svg viewBox="0 0 170.5267529817257 10.803003722926078" height="10.803003722926078" width="170.5267529817257"><g transform="matrix(1,0,0,1,0,0)"><svg width="170.5267529817257" viewBox="2.299999952316284 -35.650001525878906 572.9600219726562 36.30000305175781" height="10.803003722926078" data-palette-color="#cf5260"><path d="M19.35 0L3.65 0 3.65-4.25 18.8-4.25Q20.55-4.25 21.8-5.08 23.05-5.9 23.75-7.2 24.45-8.5 24.45-9.95L24.45-9.95Q24.45-11.45 23.78-12.73 23.1-14 21.88-14.78 20.65-15.55 18.9-15.55L18.9-15.55 12.3-15.55Q9.35-15.55 7.1-16.78 4.85-18 3.58-20.18 2.3-22.35 2.3-25.1L2.3-25.1Q2.3-27.9 3.53-30.15 4.75-32.4 6.98-33.7 9.2-35 12.1-35L12.1-35 26.95-35 26.95-30.75 12.55-30.75Q10.9-30.75 9.65-29.98 8.4-29.2 7.75-27.98 7.1-26.75 7.1-25.35L7.1-25.35Q7.1-24 7.73-22.78 8.35-21.55 9.58-20.8 10.8-20.05 12.4-20.05L12.4-20.05 19.15-20.05Q22.3-20.05 24.55-18.8 26.8-17.55 28-15.4 29.2-13.25 29.2-10.5L29.2-10.5Q29.2-7.45 27.98-5.08 26.75-2.7 24.5-1.35 22.25 0 19.35 0L19.35 0ZM51.65 0.65L51.65 0.65Q47.5 0.65 44.15-0.78 40.8-2.2 38.42-4.7 36.05-7.2 34.75-10.5 33.45-13.8 33.45-17.55L33.45-17.55Q33.45-21.3 34.75-24.58 36.05-27.85 38.42-30.35 40.8-32.85 44.15-34.25 47.5-35.65 51.65-35.65L51.65-35.65Q55.8-35.65 59.15-34.25 62.5-32.85 64.87-30.35 67.25-27.85 68.55-24.58 69.85-21.3 69.85-17.55L69.85-17.55Q69.85-13.8 68.55-10.5 67.25-7.2 64.87-4.7 62.5-2.2 59.15-0.78 55.8 0.65 51.65 0.65ZM51.65-3.6L51.65-3.6Q54.5-3.6 56.95-4.65 59.4-5.7 61.22-7.6 63.05-9.5 64.05-12.03 65.05-14.55 65.05-17.55L65.05-17.55Q65.05-20.5 64.05-23.05 63.05-25.6 61.22-27.48 59.4-29.35 56.95-30.38 54.5-31.4 51.65-31.4L51.65-31.4Q48.75-31.4 46.3-30.38 43.85-29.35 42.05-27.48 40.25-25.6 39.25-23.08 38.25-20.55 38.25-17.55L38.25-17.55Q38.25-14.55 39.25-12.03 40.25-9.5 42.05-7.6 43.85-5.7 46.3-4.65 48.75-3.6 51.65-3.6ZM80.2 0L75.4 0 75.4-25.9Q75.4-28.55 76.6-30.6 77.8-32.65 79.85-33.83 81.9-35 84.5-35L84.5-35 96.95-35 96.95-30.75 85.05-30.75Q82.85-30.75 81.52-29.38 80.2-28 80.2-25.9L80.2-25.9 80.2-18.8 95.1-18.8 95.1-14.55 80.2-14.55 80.2 0ZM122.09 0L119.74 0Q116.89 0 114.82-1.23 112.74-2.45 111.62-4.58 110.49-6.7 110.49-9.35L110.49-9.35 110.49-30.75 99.84-30.75 99.84-35 125.94-35 125.94-30.75 115.29-30.75 115.29-8.75Q115.29-6.8 116.52-5.53 117.74-4.25 119.79-4.25L119.79-4.25 122.09-4.25 122.09 0ZM143.94 0.6L143.94 0.6Q140.04 0.6 137.02-1.03 133.99-2.65 132.29-5.68 130.59-8.7 130.59-12.85L130.59-12.85 130.59-35 135.39-35 135.39-12.55Q135.39-10.1 136.42-8.08 137.44-6.05 139.37-4.83 141.29-3.6 143.94-3.6L143.94-3.6Q146.54-3.6 148.47-4.83 150.39-6.05 151.44-8.08 152.49-10.1 152.49-12.55L152.49-12.55 152.49-35 157.29-35 157.29-12.55Q157.29-10.1 158.32-8.08 159.34-6.05 161.27-4.83 163.19-3.6 165.84-3.6L165.84-3.6Q168.44-3.6 170.37-4.83 172.29-6.05 173.32-8.08 174.34-10.1 174.34-12.55L174.34-12.55 174.34-35 179.14-35 179.14-12.85Q179.14-8.7 177.44-5.68 175.74-2.65 172.74-1.03 169.74 0.6 165.84 0.6L165.84 0.6Q163.49 0.6 161.37-0.08 159.24-0.75 157.59-2.18 155.94-3.6 154.89-5.7L154.89-5.7Q153.89-3.6 152.19-2.2 150.49-0.8 148.37-0.1 146.24 0.6 143.94 0.6ZM187.79 0L182.74 0 194.64-31.65Q195.44-33.7 196.84-34.65 198.24-35.6 200.09-35.6L200.09-35.6Q201.94-35.6 203.36-34.68 204.79-33.75 205.54-31.7L205.54-31.7 217.49 0 212.24 0 209.19-8.45 190.89-8.45 187.79 0ZM198.79-30.05L192.39-12.7 207.74-12.7 201.49-30.05Q201.24-30.7 200.94-31.05 200.64-31.4 200.09-31.4L200.09-31.4Q199.59-31.4 199.29-31.05 198.99-30.7 198.79-30.05L198.79-30.05ZM225.44 0L220.64 0 220.64-35 235.99-35Q239.29-35 241.99-33.58 244.69-32.15 246.29-29.58 247.89-27 247.89-23.55L247.89-23.55Q247.89-20.05 246.11-17.38 244.34-14.7 241.34-13.4L241.34-13.4 245.09-5.8Q245.49-5 245.96-4.63 246.44-4.25 247.34-4.25L247.34-4.25 249.84-4.25 249.84 0 246.59 0Q244.64 0 243.16-1 241.69-2 240.74-3.7L240.74-3.7 236.54-12.25Q236.04-12.2 235.46-12.18 234.89-12.15 234.29-12.15L234.29-12.15 225.44-12.15 225.44 0ZM225.44-30.75L225.44-16.4 235.34-16.4Q237.49-16.4 239.26-17.25 241.04-18.1 242.06-19.7 243.09-21.3 243.09-23.55L243.09-23.55Q243.09-25.85 242.04-27.45 240.99-29.05 239.24-29.9 237.49-30.75 235.39-30.75L235.39-30.75 225.44-30.75ZM276.68 0L262.98 0Q260.08 0 257.86-1.38 255.63-2.75 254.38-5 253.13-7.25 253.13-9.9L253.13-9.9Q253.13-12.3 254.26-14.4 255.38-16.5 257.53-17.7L257.53-17.7Q255.43-19.05 254.33-21.05 253.23-23.05 253.23-25.25L253.23-25.25Q253.23-27.95 254.51-30.15 255.78-32.35 257.98-33.68 260.18-35 262.83-35L262.83-35 276.68-35 276.68-30.75 263.38-30.75Q261.83-30.75 260.63-30 259.43-29.25 258.73-28.03 258.03-26.8 258.03-25.25L258.03-25.25Q258.03-23.8 258.76-22.6 259.48-21.4 260.73-20.68 261.98-19.95 263.48-19.95L263.48-19.95 274.83-19.95 274.83-15.7 263.83-15.7Q261.98-15.7 260.66-14.88 259.33-14.05 258.61-12.73 257.88-11.4 257.88-9.9L257.88-9.9Q257.88-8.4 258.58-7.1 259.28-5.8 260.58-5.03 261.88-4.25 263.63-4.25L263.63-4.25 276.68-4.25 276.68 0ZM307.13 0L295.93 0 295.93-35 307.13-35Q312.73-35 316.8-32.75 320.88-30.5 323.13-26.55 325.38-22.6 325.38-17.5L325.38-17.5Q325.38-12.4 323.13-8.45 320.88-4.5 316.8-2.25 312.73 0 307.13 0L307.13 0ZM300.73-30.75L300.73-4.25 307.18-4.25Q311.08-4.25 314.1-5.85 317.13-7.45 318.88-10.43 320.63-13.4 320.63-17.5L320.63-17.5Q320.63-21.65 318.88-24.6 317.13-27.55 314.1-29.15 311.08-30.75 307.18-30.75L307.18-30.75 300.73-30.75ZM353.43 0L339.73 0Q336.83 0 334.6-1.38 332.38-2.75 331.13-5 329.88-7.25 329.88-9.9L329.88-9.9Q329.88-12.3 331-14.4 332.13-16.5 334.28-17.7L334.28-17.7Q332.18-19.05 331.08-21.05 329.98-23.05 329.98-25.25L329.98-25.25Q329.98-27.95 331.25-30.15 332.53-32.35 334.73-33.68 336.93-35 339.58-35L339.58-35 353.43-35 353.43-30.75 340.13-30.75Q338.58-30.75 337.38-30 336.18-29.25 335.48-28.03 334.78-26.8 334.78-25.25L334.78-25.25Q334.78-23.8 335.5-22.6 336.23-21.4 337.48-20.68 338.73-19.95 340.23-19.95L340.23-19.95 351.58-19.95 351.58-15.7 340.58-15.7Q338.73-15.7 337.4-14.88 336.08-14.05 335.35-12.73 334.63-11.4 334.63-9.9L334.63-9.9Q334.63-8.4 335.33-7.1 336.03-5.8 337.33-5.03 338.63-4.25 340.38-4.25L340.38-4.25 353.43-4.25 353.43 0ZM372.47 0.6L372.47 0.6Q370.67 0.6 369.32-0.33 367.97-1.25 367.17-3.35L367.17-3.35 355.72-35 360.97-35 371.12-5.3Q371.37-4.65 371.67-4.25 371.97-3.85 372.47-3.85L372.47-3.85Q373.02-3.85 373.32-4.25 373.62-4.65 373.87-5.3L373.87-5.3 384.22-35 389.27-35 377.82-3.35Q377.07-1.3 375.7-0.35 374.32 0.6 372.47 0.6ZM415.32 0L401.62 0Q398.72 0 396.5-1.38 394.27-2.75 393.02-5 391.77-7.25 391.77-9.9L391.77-9.9Q391.77-12.3 392.9-14.4 394.02-16.5 396.17-17.7L396.17-17.7Q394.07-19.05 392.97-21.05 391.87-23.05 391.87-25.25L391.87-25.25Q391.87-27.95 393.15-30.15 394.42-32.35 396.62-33.68 398.82-35 401.47-35L401.47-35 415.32-35 415.32-30.75 402.02-30.75Q400.47-30.75 399.27-30 398.07-29.25 397.37-28.03 396.67-26.8 396.67-25.25L396.67-25.25Q396.67-23.8 397.4-22.6 398.12-21.4 399.37-20.68 400.62-19.95 402.12-19.95L402.12-19.95 413.47-19.95 413.47-15.7 402.47-15.7Q400.62-15.7 399.3-14.88 397.97-14.05 397.25-12.73 396.52-11.4 396.52-9.9L396.52-9.9Q396.52-8.4 397.22-7.1 397.92-5.8 399.22-5.03 400.52-4.25 402.27-4.25L402.27-4.25 415.32-4.25 415.32 0ZM439.62 0L430.22 0Q427.37 0 425.29-1.23 423.22-2.45 422.09-4.58 420.97-6.7 420.97-9.35L420.97-9.35 420.97-35 425.77-35 425.77-8.75Q425.77-6.8 426.99-5.53 428.22-4.25 430.22-4.25L430.22-4.25 439.62-4.25 439.62 0ZM461.42 0.65L461.42 0.65Q457.27 0.65 453.92-0.78 450.57-2.2 448.19-4.7 445.82-7.2 444.52-10.5 443.22-13.8 443.22-17.55L443.22-17.55Q443.22-21.3 444.52-24.58 445.82-27.85 448.19-30.35 450.57-32.85 453.92-34.25 457.27-35.65 461.42-35.65L461.42-35.65Q465.57-35.65 468.92-34.25 472.27-32.85 474.64-30.35 477.02-27.85 478.32-24.58 479.62-21.3 479.62-17.55L479.62-17.55Q479.62-13.8 478.32-10.5 477.02-7.2 474.64-4.7 472.27-2.2 468.92-0.78 465.57 0.65 461.42 0.65ZM461.42-3.6L461.42-3.6Q464.27-3.6 466.72-4.65 469.17-5.7 470.99-7.6 472.82-9.5 473.82-12.03 474.82-14.55 474.82-17.55L474.82-17.55Q474.82-20.5 473.82-23.05 472.82-25.6 470.99-27.48 469.17-29.35 466.72-30.38 464.27-31.4 461.42-31.4L461.42-31.4Q458.52-31.4 456.07-30.38 453.62-29.35 451.82-27.48 450.02-25.6 449.02-23.08 448.02-20.55 448.02-17.55L448.02-17.55Q448.02-14.55 449.02-12.03 450.02-9.5 451.82-7.6 453.62-5.7 456.07-4.65 458.52-3.6 461.42-3.6ZM490.31 0L485.51 0 485.51-35 500.26-35Q503.56-35 506.26-33.52 508.96-32.05 510.56-29.4 512.16-26.75 512.16-23.2L512.16-23.2Q512.16-19.75 510.59-17.1 509.01-14.45 506.31-12.95 503.61-11.45 500.16-11.45L500.16-11.45 490.31-11.45 490.31 0ZM490.31-30.75L490.31-15.7 499.61-15.7Q501.76-15.7 503.54-16.57 505.31-17.45 506.34-19.15 507.36-20.85 507.36-23.2L507.36-23.2Q507.36-25.6 506.34-27.28 505.31-28.95 503.54-29.85 501.76-30.75 499.66-30.75L499.66-30.75 490.31-30.75ZM540.06 0L526.36 0Q523.46 0 521.24-1.38 519.01-2.75 517.76-5 516.51-7.25 516.51-9.9L516.51-9.9Q516.51-12.3 517.63-14.4 518.76-16.5 520.91-17.7L520.91-17.7Q518.81-19.05 517.71-21.05 516.61-23.05 516.61-25.25L516.61-25.25Q516.61-27.95 517.88-30.15 519.16-32.35 521.36-33.68 523.56-35 526.21-35L526.21-35 540.06-35 540.06-30.75 526.76-30.75Q525.21-30.75 524.01-30 522.81-29.25 522.11-28.03 521.41-26.8 521.41-25.25L521.41-25.25Q521.41-23.8 522.13-22.6 522.86-21.4 524.11-20.68 525.36-19.95 526.86-19.95L526.86-19.95 538.21-19.95 538.21-15.7 527.21-15.7Q525.36-15.7 524.03-14.88 522.71-14.05 521.99-12.73 521.26-11.4 521.26-9.9L521.26-9.9Q521.26-8.4 521.96-7.1 522.66-5.8 523.96-5.03 525.26-4.25 527.01-4.25L527.01-4.25 540.06-4.25 540.06 0ZM550.86 0L546.06 0 546.06-35 561.41-35Q564.71-35 567.41-33.58 570.11-32.15 571.71-29.58 573.31-27 573.31-23.55L573.31-23.55Q573.31-20.05 571.53-17.38 569.76-14.7 566.76-13.4L566.76-13.4 570.51-5.8Q570.91-5 571.38-4.63 571.86-4.25 572.76-4.25L572.76-4.25 575.26-4.25 575.26 0 572.01 0Q570.06 0 568.58-1 567.11-2 566.16-3.7L566.16-3.7 561.96-12.25Q561.46-12.2 560.88-12.18 560.31-12.15 559.71-12.15L559.71-12.15 550.86-12.15 550.86 0ZM550.86-30.75L550.86-16.4 560.76-16.4Q562.91-16.4 564.68-17.25 566.46-18.1 567.48-19.7 568.51-21.3 568.51-23.55L568.51-23.55Q568.51-25.85 567.46-27.45 566.41-29.05 564.66-29.9 562.91-30.75 560.81-30.75L560.81-30.75 550.86-30.75Z" opacity="1" transform="matrix(1,0,0,1,0,0)" fill="#cf5260" class="undefined-text-1" data-fill-palette-color="quaternary" id="text-1"></path></svg></g></svg></g></svg></g></svg></g><g transform="matrix(1,0,0,1,46.222460873762934,0)"><svg viewBox="0 0 121.77931168576701 232.64771293147226" height="232.64771293147226" width="121.77931168576701"><g><svg xmlns="http://www.w3.org/2000/svg" xmlns:xlink="http://www.w3.org/1999/xlink" version="1.1" x="0" y="0" viewBox="19.682355880737305 3.5 35.572967529296875 67.95874786376953" enable-background="new 0 0 75 75" xml:space="preserve" height="232.64771293147226" width="121.77931168576701" class="icon-icon-0" data-fill-palette-color="quaternary" id="icon-0"><path d="M21.2 59.5c-1.1-2.6-4.2-12.2 3.8-24.7C36 18 31.7 3.5 31.7 3.5S46 8.8 41.7 37.5c-1 6.5-0.9 9 2 9.4 5 0.7 3.1-19.7 3.1-19.7s3.9 2 6.8 12.1c1.5 5.3 1.8 9.5 1.6 12.5-1 18.1-16.5 19.6-16.5 19.6S26.9 73 21.2 59.5z" fill="#cf5260" data-fill-palette-color="quaternary"></path></svg></g></svg></g><g></g></svg></g></svg></g></svg></g><defs></defs></svg><rect width="333.90454557049503" height="333.90454557049503" fill="none" stroke="none" visibility="hidden"></rect></g></svg></g></svg>